<svg width="36" height="39" viewBox="0 0 36 39" fill="none" xmlns="http://www.w3.org/2000/svg">
<path d="M35.1527 5.36576C35.0828 4.87075 34.7179 4.46643 34.2209 4.33039L18.3917 0.0453444C18.1665 -0.0151148 17.9258 -0.0151148 17.7006 0.0453444L1.87138 4.33039C1.37829 4.46265 1.01333 4.87075 0.939562 5.36576C0.84638 6.00814 -1.24632 21.191 4.12715 28.7408C9.49285 36.2831 17.4094 38.2178 17.7433 38.2972C17.8442 38.3198 17.9452 38.3312 18.0461 38.3312C18.1471 38.3312 18.248 38.3198 18.349 38.2972C18.6829 38.2178 26.5994 36.2869 31.9651 28.7408C37.3386 21.191 35.2459 6.00814 35.1527 5.36576Z" fill="url(#paint0_linear)"/>
<path d="M13.1657 21.1381H16.0233V23.9192C16.0233 25.0075 16.9318 25.8917 18.05 25.8917C19.1682 25.8917 20.0767 25.0075 20.0767 23.9192V21.1381H22.9342C24.0524 21.1381 24.9609 20.2538 24.9609 19.1656C24.9609 18.0773 24.0524 17.1931 22.9342 17.1931H20.0728V14.412C20.0728 13.3237 19.1643 12.4395 18.0461 12.4395C16.9279 12.4395 16.0194 13.3237 16.0194 14.412V17.1931H13.1618C12.0437 17.1931 11.1351 18.0773 11.1351 19.1656C11.1351 20.2538 12.0475 21.1381 13.1657 21.1381Z" fill="#EFF5F6"/>
<defs>
<linearGradient id="paint0_linear" x1="18.0475" y1="46.4549" x2="18.0475" y2="-7.87119" gradientUnits="userSpaceOnUse">
<stop offset="2.49873e-06" stop-color="#1263AE"/>
<stop offset="0.4832" stop-color="#00A1E4"/>
<stop offset="1" stop-color="#87CDF1"/>
</linearGradient>
</defs>
</svg>
