<svg width="178" height="39" viewBox="0 0 178 39" fill="none" xmlns="http://www.w3.org/2000/svg">
<path d="M55.6255 33.5209V37.3411H50.1278V0H55.8313V11.0527C55.8313 13.5996 55.8313 16.1464 55.7808 18.4401C57.823 15.334 60.9097 13.5996 64.47 13.5996C70.6471 13.5996 74.9917 18.338 74.9917 25.7745C74.9917 33.1619 70.387 38.3047 64.105 38.3047C60.7039 38.3085 57.4076 36.5249 55.6255 33.5209ZM69.1834 25.8274C69.1834 21.191 66.7219 18.4401 62.6918 18.4401C58.6073 18.4401 55.6798 21.5991 55.6798 25.9786C55.6798 30.4601 58.452 33.468 62.5908 33.468C66.6714 33.468 69.1834 30.5659 69.1834 25.8274Z" fill="#1E2D55"/>
<path d="M80.9087 0H86.6122V37.3411H80.9087V0Z" fill="#1E2D55"/>
<path d="M92.5254 25.9294C92.5254 18.9501 98.0736 13.6033 105.61 13.6033C113.095 13.6033 118.643 18.9501 118.643 25.9294C118.643 32.9087 113.045 38.3084 105.61 38.3084C98.1279 38.3084 92.5254 32.9087 92.5254 25.9294ZM112.886 25.9294C112.886 21.7502 109.799 18.4929 105.61 18.4929C101.42 18.4929 98.3337 21.7539 98.3337 25.9294C98.3337 30.1578 101.475 33.4188 105.61 33.4188C109.694 33.4188 112.886 30.1578 112.886 25.9294Z" fill="#1E2D55"/>
<path d="M122.833 25.9294C122.833 18.9501 128.381 13.6033 135.917 13.6033C143.402 13.6033 148.951 18.9501 148.951 25.9294C148.951 32.9087 143.352 38.3084 135.917 38.3084C128.431 38.3084 122.833 32.9087 122.833 25.9294ZM143.193 25.9294C143.193 21.7502 140.106 18.4929 135.917 18.4929C131.728 18.4929 128.641 21.7539 128.641 25.9294C128.641 30.1578 131.782 33.4188 135.917 33.4188C139.997 33.4188 143.193 30.1578 143.193 25.9294Z" fill="#1E2D55"/>
<path d="M153.136 25.9295C153.136 18.595 157.9 13.6033 163.918 13.6033C167.269 13.6033 170.41 15.334 172.347 18.4439C172.296 16.1502 172.296 13.6033 172.296 11.0565V0H178V37.3411H172.502V33.5209C170.724 36.5249 167.319 38.3085 163.763 38.3085C157.43 38.3085 153.136 33.5209 153.136 25.9295ZM172.452 25.9786C172.452 21.5991 169.575 18.4401 165.595 18.4401C161.565 18.4401 158.894 21.3421 158.894 25.9786C158.894 30.6642 161.406 33.468 165.386 33.468C169.676 33.468 172.452 30.4639 172.452 25.9786Z" fill="#1E2D55"/>
<path d="M35.1527 5.36576C35.0828 4.87075 34.7179 4.46643 34.2209 4.33039L18.3917 0.0453444C18.1665 -0.0151148 17.9258 -0.0151148 17.7006 0.0453444L1.87139 4.33039C1.37831 4.46265 1.01335 4.87075 0.939577 5.36576C0.846396 6.00814 -1.24631 21.191 4.12716 28.7408C9.49286 36.2831 17.4094 38.2178 17.7433 38.2972C17.8443 38.3198 17.9452 38.3312 18.0462 38.3312C18.1471 38.3312 18.248 38.3198 18.349 38.2972C18.6829 38.2178 26.5994 36.2869 31.9651 28.7408C37.3386 21.191 35.2459 6.00814 35.1527 5.36576Z" fill="url(#paint0_linear)"/>
<path d="M13.1658 21.138H16.0233V23.9192C16.0233 25.0074 16.9319 25.8916 18.05 25.8916C19.1682 25.8916 20.0767 25.0074 20.0767 23.9192V21.138H22.9343C24.0525 21.138 24.961 20.2538 24.961 19.1655C24.961 18.0773 24.0525 17.1931 22.9343 17.1931H20.0729V14.4119C20.0729 13.3237 19.1643 12.4395 18.0462 12.4395C16.928 12.4395 16.0195 13.3237 16.0195 14.4119V17.1931H13.1619C12.0437 17.1931 11.1352 18.0773 11.1352 19.1655C11.1352 20.2538 12.0476 21.138 13.1658 21.138Z" fill="#EFF5F6"/>
<defs>
<linearGradient id="paint0_linear" x1="18.0475" y1="46.4549" x2="18.0475" y2="-7.87119" gradientUnits="userSpaceOnUse">
<stop offset="2.49873e-06" stop-color="#1263AE"/>
<stop offset="0.4832" stop-color="#00A1E4"/>
<stop offset="1" stop-color="#87CDF1"/>
</linearGradient>
</defs>
</svg>
