<?xml version="1.0" standalone="no"?>
<!DOCTYPE svg PUBLIC "-//W3C//DTD SVG 20010904//EN"
 "http://www.w3.org/TR/2001/REC-SVG-20010904/DTD/svg10.dtd">
<svg version="1.0" xmlns="http://www.w3.org/2000/svg"
 width="624.000000pt" height="624.000000pt" viewBox="0 0 624.000000 624.000000"
 preserveAspectRatio="xMidYMid meet">
<metadata>
Created by potrace 1.11, written by Peter Selinger 2001-2013
</metadata>
<g transform="translate(0.000000,624.000000) scale(0.100000,-0.100000)"
fill="#000000" stroke="none">
<path d="M3020 6220 c-36 -11 -74 -22 -85 -24 -70 -17 -112 -29 -125 -33 -8
-3 -19 -7 -25 -8 -5 -2 -46 -13 -90 -24 -44 -12 -123 -33 -175 -47 -52 -13
-109 -29 -126 -35 -17 -5 -40 -11 -50 -14 -10 -2 -127 -33 -259 -70 -132 -36
-249 -68 -260 -69 -11 -2 -20 -4 -20 -5 0 -2 -7 -4 -15 -6 -8 -1 -75 -19 -149
-40 -74 -20 -142 -38 -150 -40 -9 -2 -42 -11 -75 -20 -32 -9 -66 -19 -75 -20
-9 -2 -16 -4 -16 -5 0 -1 -7 -3 -15 -5 -8 -1 -60 -15 -115 -30 -55 -15 -107
-29 -115 -30 -8 -2 -15 -4 -15 -5 0 -1 -7 -3 -15 -5 -8 -1 -35 -8 -60 -16 -60
-17 -62 -17 -88 -23 -12 -3 -26 -7 -30 -10 -5 -3 -21 -7 -36 -10 -15 -3 -66
-16 -114 -29 -48 -14 -118 -33 -157 -43 -91 -25 -159 -86 -170 -155 -4 -24 -9
-51 -10 -59 -2 -8 -6 -42 -9 -75 -4 -33 -9 -80 -12 -105 -7 -65 -11 -117 -29
-350 -13 -160 -17 -312 -17 -620 0 -335 7 -532 27 -730 2 -25 7 -74 10 -110 3
-36 7 -76 10 -90 8 -48 16 -115 18 -147 1 -18 4 -33 7 -33 3 0 6 -17 7 -38 0
-20 4 -48 7 -62 3 -14 10 -50 16 -80 6 -30 12 -66 15 -80 3 -14 8 -38 11 -55
8 -43 9 -48 17 -70 3 -11 8 -31 11 -45 11 -58 36 -147 66 -245 13 -38 23 -74
25 -80 1 -5 7 -23 13 -38 7 -16 12 -33 12 -38 0 -5 4 -17 9 -27 13 -25 72
-165 75 -177 4 -16 84 -175 113 -225 37 -64 131 -207 148 -224 8 -8 15 -17 15
-20 0 -3 7 -14 15 -23 8 -10 36 -45 62 -79 142 -179 383 -426 556 -569 96 -79
116 -95 122 -95 3 0 16 -9 28 -21 20 -19 112 -87 156 -114 9 -6 61 -40 116
-76 96 -63 172 -108 286 -166 30 -16 60 -34 67 -40 7 -7 22 -13 32 -13 10 0
22 -5 25 -11 6 -8 39 -26 65 -34 3 -1 32 -14 65 -29 33 -15 83 -37 110 -48 28
-11 64 -26 80 -33 69 -32 314 -108 363 -112 57 -6 99 3 242 48 222 72 556 223
762 346 88 52 335 213 368 239 8 7 65 52 127 101 204 162 378 330 553 534 99
115 260 331 260 349 0 5 4 10 9 10 5 0 14 12 20 28 7 15 31 61 54 102 36 64
78 153 144 307 16 39 103 300 106 322 1 9 6 22 10 29 5 6 6 12 3 12 -3 0 -1
11 4 25 5 14 12 36 14 48 2 12 9 40 14 62 6 22 14 54 16 70 9 50 15 76 20 93
3 10 8 31 10 47 6 43 15 102 26 160 9 49 22 140 25 180 1 11 5 43 8 70 11 82
18 156 22 225 2 36 7 103 10 150 19 294 19 670 0 1055 -7 149 -32 442 -41 500
-3 17 -7 50 -10 75 -12 123 -34 174 -93 214 -20 14 -79 36 -131 50 -52 15
-117 33 -145 41 -27 8 -66 18 -85 21 -19 4 -41 11 -48 17 -7 5 -15 7 -18 4 -4
-3 -23 0 -43 8 -20 7 -148 43 -286 79 -137 37 -279 75 -315 86 -36 10 -103 29
-150 41 -47 12 -116 30 -155 41 -38 10 -77 21 -85 23 -8 2 -15 4 -15 5 0 1 -7
3 -15 5 -8 1 -35 8 -60 15 -25 7 -52 14 -60 16 -8 2 -40 10 -70 19 -30 9 -66
18 -80 21 -14 3 -32 7 -40 9 -8 2 -15 4 -15 5 0 1 -7 3 -15 5 -40 9 -131 35
-138 39 -5 3 -19 7 -33 9 -13 3 -44 11 -69 18 -25 7 -50 13 -55 14 -6 2 -46
13 -90 25 -44 12 -89 24 -100 26 -11 2 -42 11 -70 19 -218 65 -282 73 -375 45z"/>
</g>
</svg>
